<svg width="288" height="264" viewBox="0 0 288 264" fill="none" xmlns="http://www.w3.org/2000/svg">
<path d="M184.76 124.753C184.76 156.035 146.928 149.5 100.26 149.5C53.5922 149.5 15.7603 156.035 15.7603 124.753C15.7603 93.4712 53.5922 0 100.26 0C146.928 0 184.76 93.4712 184.76 124.753Z" fill="#CEC0E8"/>
<path d="M178.5 121C178.5 149.995 144.719 142 100.26 142C55.8013 142 23.5 149.995 23.5 121C23.5 92.0051 55.8013 10 100.26 10C144.719 10 178.5 92.0051 178.5 121Z" fill="#F1E3FF"/>
<ellipse cx="68.5" cy="61.5" rx="4.5" ry="4" fill="black"/>
<ellipse cx="134.5" cy="61.5" rx="4.5" ry="4" fill="black"/>
<path d="M86.2405 98.1336C86.3108 97.1492 87.6419 96.8979 88.0662 97.789V97.789C93.5516 109.308 109.872 109.517 115.65 98.1415L116.283 96.8958C116.704 96.0678 117.926 96.2059 118.152 97.1069L118.723 99.3927C118.904 100.115 118.866 100.874 118.616 101.575L117.61 104.389C117.538 104.591 117.419 104.773 117.264 104.922L116.678 105.482C108.266 113.529 94.9466 113.314 86.798 105V105C86.6042 104.802 86.477 104.549 86.4342 104.275L86.0497 101.818C86.0167 101.607 86.0077 101.392 86.0229 101.179L86.2405 98.1336Z" fill="black"/>
</svg>
