<svg width="288" height="279" viewBox="0 0 288 279" fill="none" xmlns="http://www.w3.org/2000/svg">
<path d="M185 140.253C185 171.535 149.168 130.5 102.5 130.5C55.8319 130.5 16 171.535 16 140.253C16 108.971 53.8319 0 100.5 0C147.168 0 185 108.971 185 140.253Z" fill="#E8C0E3"/>
<path d="M181 136.5C181 165.495 148 118.5 100.5 122.5C56.0411 122.5 21 165.495 21 136.5C26 106.5 56.0411 6.5 100.5 6.5C144.959 6.5 177 110 181 136.5Z" fill="#FFE3FB"/>
<ellipse cx="69.5" cy="58" rx="4.5" ry="4" fill="black"/>
<ellipse cx="132.5" cy="58" rx="4.5" ry="4" fill="black"/>
<path d="M84.7405 84.6336C84.8108 83.6492 86.1419 83.3979 86.5662 84.289C92.0516 95.8084 108.372 96.0169 114.15 84.6415L114.783 83.3958C115.204 82.5678 116.426 82.7059 116.652 83.6069L117.223 85.8927C117.404 86.6147 117.366 87.374 117.116 88.0747L116.11 90.8888C116.038 91.0909 115.919 91.2733 115.764 91.4216L115.178 91.9822C106.766 100.029 93.4466 99.8138 85.298 91.5002C85.1042 91.3024 84.977 91.049 84.9342 90.7754L84.5497 88.3175C84.5167 88.1065 84.5077 87.8925 84.5229 87.6794L84.7405 84.6336Z" fill="black"/>
</svg>
